<svg width="24" height="18" viewBox="0 0 24 18" fill="none" xmlns="http://www.w3.org/2000/svg">
<path d="M20.0968 2.55679C18.1576 0.998386 15.0912 0.734386 14.9616 0.723186C14.7568 0.705586 14.5624 0.821586 14.4784 1.00879C14.4752 1.01519 14.304 1.51199 14.1384 1.99119C16.392 2.38559 17.9232 3.26079 18.0048 3.30879C18.3872 3.53119 18.5152 4.02159 18.292 4.40319C18.144 4.65759 17.876 4.79999 17.6008 4.79999C17.464 4.79999 17.3264 4.76559 17.2 4.69199C17.1776 4.67839 14.9312 3.39999 12.0024 3.39999C9.07278 3.39999 6.82558 4.67919 6.80318 4.69199C6.42158 4.91359 5.93198 4.78319 5.71038 4.40079C5.48878 4.01999 5.61758 3.53119 5.99838 3.30879C6.07998 3.26079 7.61678 2.38239 9.87678 1.98879C9.70238 1.50399 9.52638 1.01519 9.52318 1.00879C9.43918 0.820786 9.24478 0.702386 9.03998 0.723186C8.91038 0.733586 5.84398 0.997586 3.87918 2.57759C2.85198 3.52639 0.800781 9.07359 0.800781 13.8696C0.800781 13.9544 0.822381 14.0368 0.864781 14.1104C2.28158 16.5984 6.14398 17.2496 7.02398 17.2776C7.02958 17.2784 7.03438 17.2784 7.03918 17.2784C7.19438 17.2784 7.34078 17.204 7.43278 17.0784L8.38478 15.7888C6.29678 15.2856 5.19278 14.4944 5.12638 14.4456C4.77118 14.184 4.69438 13.6832 4.95598 13.3272C5.21678 12.9728 5.71598 12.8944 6.07118 13.1544C6.10078 13.1736 8.13838 14.6 12.0008 14.6C15.8784 14.6 17.9104 13.168 17.9304 13.1536C18.2856 12.896 18.7864 12.9736 19.0464 13.3304C19.3056 13.6856 19.2304 14.1832 18.8768 14.444C18.8104 14.4928 17.712 15.2824 15.6288 15.7856L16.5688 17.0776C16.6608 17.204 16.8072 17.2776 16.9624 17.2776C16.968 17.2776 16.9728 17.2776 16.9776 17.2768C17.8584 17.2488 21.7208 16.5976 23.1368 14.1096C23.1792 14.036 23.2008 13.9536 23.2008 13.8688C23.2008 9.07359 21.1496 3.52639 20.0968 2.55679ZM8.80078 12.2C7.91678 12.2 7.20078 11.3048 7.20078 10.2C7.20078 9.09519 7.91678 8.19999 8.80078 8.19999C9.68478 8.19999 10.4008 9.09519 10.4008 10.2C10.4008 11.3048 9.68478 12.2 8.80078 12.2ZM15.2008 12.2C14.3168 12.2 13.6008 11.3048 13.6008 10.2C13.6008 9.09519 14.3168 8.19999 15.2008 8.19999C16.0848 8.19999 16.8008 9.09519 16.8008 10.2C16.8008 11.3048 16.0848 12.2 15.2008 12.2Z" fill="#D1D5DB"/>
</svg>
