<svg width="63" height="31" viewBox="0 0 63 31" fill="none" xmlns="http://www.w3.org/2000/svg">
<g clip-path="url(#clip0_207_260)">
<path d="M21.0615 30.5663V15.2527H30.4292V17.817H23.6643V21.6346H29.1322V24.1873H23.6643V30.5692H21.0586L21.0615 30.5663Z" fill="white"/>
<path d="M31.543 30.5663V15.2527H34.1487V30.5663H31.543Z" fill="white"/>
<path d="M45.2351 22.1365C45.1909 21.7159 45.0671 21.301 44.8578 20.8978C44.4746 20.1378 43.891 19.5924 43.101 19.2588C42.311 18.9252 41.4002 18.7599 40.3626 18.7599C38.9861 18.7599 37.8925 19.0558 37.0819 19.6417C36.2713 20.2306 35.7231 21.011 35.4342 21.9827L37.8129 22.7167C38.0075 22.1278 38.3494 21.713 38.8387 21.4722C39.328 21.2314 39.838 21.1096 40.3626 21.1096C41.2352 21.1096 41.8542 21.2981 42.2226 21.6723C42.5292 21.9856 42.7031 22.444 42.7502 23.0445C42.2786 23.1141 41.8188 23.1779 41.3737 23.2417C40.6338 23.3432 39.95 23.4564 39.3192 23.5782C38.6884 23.6971 38.1401 23.8335 37.6715 23.9814C37.0524 24.1874 36.5484 24.4514 36.1593 24.7734C35.7702 25.0954 35.4814 25.4783 35.2957 25.9221C35.107 26.3659 35.0156 26.862 35.0156 27.416C35.0156 28.0484 35.166 28.6257 35.4637 29.1508C35.7614 29.6758 36.2035 30.0964 36.7872 30.4126C37.3708 30.7288 38.0841 30.8855 38.9271 30.8855C39.9795 30.8855 40.8579 30.6911 41.5594 30.3053C42.0988 30.0065 42.5881 29.5801 43.0244 29.0202V30.5664H45.3029V23.5173C45.3029 23.0212 45.2823 22.5629 45.2381 22.1394L45.2351 22.1365ZM42.6913 25.8177C42.6736 26.2383 42.594 26.6125 42.4584 26.9403C42.3729 27.2043 42.2049 27.4828 41.9544 27.7815C41.7068 28.0803 41.3737 28.3298 40.9551 28.5358C40.5366 28.7417 40.0325 28.8433 39.443 28.8433C39.0333 28.8433 38.6884 28.7794 38.4113 28.6518C38.1342 28.5242 37.922 28.353 37.7776 28.1355C37.6331 27.9179 37.5624 27.6684 37.5624 27.3841C37.5624 27.1347 37.6184 26.92 37.7304 26.7343C37.8424 26.5487 38.0016 26.3862 38.2109 26.2441C38.4202 26.102 38.6766 25.9801 38.9773 25.8728C39.2868 25.7742 39.6434 25.6842 40.0473 25.6001C40.4511 25.5189 40.9345 25.4319 41.4945 25.339C41.8542 25.281 42.2609 25.2143 42.7119 25.1447C42.709 25.339 42.7001 25.5624 42.6883 25.8119L42.6913 25.8177Z" fill="white"/>
<path d="M63.0008 22.94V30.5634H60.3951V23.5869C60.3951 22.8007 60.1976 22.1858 59.7997 21.7419C59.4017 21.2981 58.8653 21.0776 58.1903 21.0776C57.7717 21.0776 57.3973 21.1705 57.0672 21.359C56.7341 21.5476 56.4718 21.8231 56.2772 22.1887C56.0827 22.5542 55.9854 22.9893 55.9854 23.4911V30.5634H53.3915V23.6188C53.3915 22.8181 53.194 22.1945 52.7961 21.7477C52.3981 21.301 51.8587 21.0776 51.1749 21.0776C50.491 21.0776 49.9811 21.301 49.5802 21.7477C49.1793 22.1945 48.9818 22.7746 48.9818 23.4911V30.5634H46.3555V19.0789H48.6576V20.3234C48.9907 19.9086 49.4063 19.5721 49.8956 19.3081C50.5323 18.9629 51.2486 18.7917 52.0415 18.7917C52.914 18.7917 53.642 18.9745 54.2286 19.34C54.7474 19.662 55.1512 20.0884 55.4401 20.6193C55.8027 20.0623 56.2831 19.6243 56.8815 19.3052C57.5153 18.9658 58.2227 18.7946 59.0009 18.7946C60.2919 18.7946 61.2794 19.1747 61.9662 19.9376C62.653 20.7005 62.9979 21.7013 62.9979 22.9429L63.0008 22.94Z" fill="white"/>
<path d="M24.3525 6.1121C23.9722 7.38268 23.2559 8.58654 22.2213 9.68886C21.3016 10.6694 20.1609 11.5425 18.8286 12.2851C17.7497 12.8856 16.4321 13.3758 15.2442 13.7414C15.2442 12.7957 15.654 10.8782 16.1698 10.3329C16.1816 10.3183 16.1963 10.3096 16.214 10.3009C16.6709 10.0689 16.892 9.90933 17.3253 9.66856C19.477 8.4705 20.9332 6.90694 21.4225 5.26215C21.6111 4.63557 21.5374 4.0554 21.2191 3.62897C20.9273 3.24026 20.4616 3.01399 19.9369 3.00819H19.9015C19.2 3.00819 18.5721 3.25476 17.9826 3.76241C17.3754 4.28166 16.8124 5.0707 16.3054 6.1034C15.7041 7.33627 15.1853 8.92594 14.7873 10.7738L14.189 14.0692C14.1772 14.1301 14.1683 14.1881 14.1565 14.249L14.1241 14.4289C14.0563 14.8089 13.9826 15.215 13.906 15.6298C15.6422 15.4558 16.8536 15.4703 16.9391 15.4703C17.7822 15.4819 18.4572 16.1665 18.4424 16.9961C18.4306 17.82 17.7468 18.4756 16.9155 18.4756C16.9067 18.4756 16.8979 18.4756 16.892 18.4756C16.8389 18.4756 15.3327 18.4611 13.3253 18.725C13.3253 18.725 13.3253 18.725 13.3253 18.7279C13.3194 18.7279 13.3135 18.7279 13.3106 18.7279C12.5206 18.8237 10.0682 19.3545 10.0682 19.3545C8.3379 19.8158 6.8965 20.4336 5.77639 21.1908C4.39394 22.1277 3.54502 23.2388 3.17362 24.5906C2.94076 25.4463 3.06161 26.2963 3.50376 26.8619C3.66588 27.0708 3.86337 27.2303 4.09329 27.3348C4.3232 27.4392 4.58554 27.4943 4.87736 27.4943C4.87736 27.4943 5.08959 27.4943 5.30477 27.4566C6.30697 27.2739 7.36812 25.8901 7.36812 25.8901C7.8928 25.2055 8.22294 24.5732 8.5236 23.9089C8.89795 23.0879 9.36073 21.9363 9.75571 20.4888C9.78814 20.4713 9.82351 20.4568 9.85888 20.4394C10.3924 20.1929 11.0379 19.9695 11.595 19.8651C12.1816 19.7577 12.8242 19.7548 13.0866 19.8709C12.0932 23.7725 10.8729 26.5225 9.35188 28.2717C8.06376 29.7541 6.55752 30.5054 4.87736 30.5054C3.33574 30.5054 1.98867 29.8614 1.07784 28.6953C0.573796 28.0484 0.228922 27.2535 0.0815396 26.4036C-0.0599474 25.5681 -0.0127851 24.6718 0.223027 23.8131C0.783079 21.7622 2.0771 20.042 4.0697 18.6989C5.56711 17.6894 7.4595 16.8975 9.69676 16.3434C10.0387 16.2593 10.3777 16.1839 10.7107 16.1143C10.811 15.5776 10.9141 15.0177 11.0114 14.4898C10.8817 14.4927 10.755 14.4956 10.6282 14.4956C6.92892 14.4956 4.98937 13.5557 4.66218 13.3788L4.57375 13.3323C3.82505 12.9494 3.53323 12.0415 3.92232 11.3046C4.31141 10.5678 5.23402 10.2806 5.98273 10.6635L6.08589 10.7158C6.10947 10.7274 6.10653 10.7274 6.12421 10.7361C6.25391 10.7999 7.72478 11.4874 10.6312 11.4874C10.9289 11.4874 11.2354 11.4729 11.5449 11.4468C12.0195 8.7925 12.6975 6.55884 13.5582 4.79802C14.245 3.394 15.0585 2.28007 15.9811 1.49104C17.1366 0.498947 18.4572 0 19.9045 0C19.931 0 19.9575 0 19.984 0C21.4726 0.0174051 22.8226 0.690404 23.6863 1.84204C24.5735 3.02559 24.8182 4.58045 24.3613 6.1092L24.3525 6.1121Z" fill="white"/>
</g>
<defs>
<clipPath id="clip0_207_260">
<rect width="63" height="31" fill="white"/>
</clipPath>
</defs>
</svg>
