<svg width="17" height="16" viewBox="0 0 17 16" fill="none" xmlns="http://www.w3.org/2000/svg">
<path d="M9.00234 3.95708C6.73091 3.95708 4.89877 5.76059 4.89877 7.99653C4.89877 10.2325 6.73091 12.036 9.00234 12.036C11.2738 12.036 13.1059 10.2325 13.1059 7.99653C13.1059 5.76059 11.2738 3.95708 9.00234 3.95708ZM9.00234 10.6227C7.53448 10.6227 6.33448 9.44496 6.33448 7.99653C6.33448 6.54809 7.53091 5.37036 9.00234 5.37036C10.4738 5.37036 11.6702 6.54809 11.6702 7.99653C11.6702 9.44496 10.4702 10.6227 9.00234 10.6227ZM14.2309 3.79184C14.2309 4.31567 13.8023 4.73403 13.2738 4.73403C12.7416 4.73403 12.3166 4.31216 12.3166 3.79184C12.3166 3.27153 12.7452 2.84966 13.2738 2.84966C13.8023 2.84966 14.2309 3.27153 14.2309 3.79184ZM16.9488 4.74809C16.888 3.48598 16.5952 2.36802 15.6559 1.44692C14.7202 0.52583 13.5845 0.237549 12.3023 0.174268C10.9809 0.100439 7.0202 0.100439 5.69877 0.174268C4.4202 0.234033 3.28448 0.522314 2.3452 1.44341C1.40591 2.3645 1.11663 3.48247 1.05234 4.74458C0.977344 6.04536 0.977344 9.94418 1.05234 11.245C1.11306 12.5071 1.40591 13.625 2.3452 14.5461C3.28448 15.4672 4.41663 15.7555 5.69877 15.8188C7.0202 15.8926 10.9809 15.8926 12.3023 15.8188C13.5845 15.759 14.7202 15.4707 15.6559 14.5461C16.5916 13.625 16.8845 12.5071 16.9488 11.245C17.0238 9.94418 17.0238 6.04887 16.9488 4.74809ZM15.2416 12.6407C14.963 13.3297 14.4238 13.8606 13.7202 14.1383C12.6666 14.5496 10.1666 14.4547 9.00234 14.4547C7.83805 14.4547 5.33448 14.5461 4.28448 14.1383C3.58448 13.8641 3.0452 13.3332 2.76306 12.6407C2.3452 11.6036 2.44163 9.14262 2.44163 7.99653C2.44163 6.85044 2.34877 4.38598 2.76306 3.35239C3.04163 2.66333 3.58091 2.13247 4.28448 1.85474C5.33805 1.44341 7.83805 1.53833 9.00234 1.53833C10.1666 1.53833 12.6702 1.44692 13.7202 1.85474C14.4202 2.12895 14.9595 2.65981 15.2416 3.35239C15.6595 4.3895 15.563 6.85044 15.563 7.99653C15.563 9.14262 15.6595 11.6071 15.2416 12.6407Z" fill="#D1D5DB"/>
</svg>
