<svg width="19" height="16" viewBox="0 0 19 16" fill="none" xmlns="http://www.w3.org/2000/svg">
<path d="M19 7.38486C19 6.02736 17.9394 4.92339 16.6353 4.92339C16.1139 4.92339 15.6185 5.10062 15.2142 5.42184C13.8947 4.46802 12.1661 3.89942 10.3276 3.75543L11.3196 1.33334L14.2057 2.03486C14.2979 2.96407 15.0451 3.69266 15.9614 3.69266C16.9392 3.69266 17.7349 2.86438 17.7349 1.84656C17.7349 0.828742 16.9392 0.000457969 15.9614 0.000457969C15.3419 0.000457969 14.7968 0.333987 14.48 0.837357L11.1068 0.0164575C10.9711 -0.0168819 10.8284 0.000775388 10.704 0.0663101C10.5796 0.131845 10.4815 0.241039 10.4269 0.374601L9.05544 3.7222C7.07032 3.79358 5.1786 4.37572 3.75035 5.38984C3.39709 5.125 2.98051 4.96671 2.54642 4.93236C2.11233 4.89802 1.67755 4.98895 1.28989 5.19517C0.902238 5.40138 0.576725 5.71489 0.349155 6.10121C0.121585 6.48753 0.000773098 6.9317 5.55553e-06 7.38486C-0.000902006 7.81856 0.109402 8.24466 0.31953 8.61916C0.529659 8.99367 0.831998 9.30301 1.19534 9.51526C1.18621 9.62536 1.18187 9.73583 1.18233 9.84633C1.18233 13.2395 4.89484 16 9.45862 16C14.0212 16 17.7349 13.2395 17.7349 9.84633C17.7349 9.75033 17.7314 9.65557 17.7254 9.5608C18.1101 9.35589 18.4328 9.04414 18.6578 8.66009C18.8827 8.27604 19.0012 7.83467 19 7.38486ZM15.9614 1.23119C16.1185 1.23152 16.2691 1.29679 16.3799 1.41266C16.4908 1.52852 16.5529 1.68549 16.5526 1.84902C16.5523 2.01255 16.4896 2.16926 16.3782 2.28466C16.2669 2.40006 16.1161 2.46471 15.959 2.46439C15.8813 2.46423 15.8043 2.44812 15.7325 2.41698C15.6607 2.38584 15.5954 2.34029 15.5405 2.28292C15.4857 2.22555 15.4421 2.15749 15.4125 2.08261C15.3829 2.00774 15.3677 1.92753 15.3679 1.84656C15.368 1.76559 15.3835 1.68544 15.4134 1.61069C15.4433 1.53594 15.4871 1.46806 15.5422 1.41092C15.5973 1.35378 15.6627 1.30849 15.7346 1.27766C15.8066 1.24682 15.8836 1.23103 15.9614 1.23119ZM5.32048 9.23096C5.32048 8.55283 5.85134 8.00023 6.5028 8.00023C7.15426 8.00023 7.68513 8.55283 7.68513 9.23096C7.67151 9.54785 7.54099 9.84706 7.32076 10.0663C7.10052 10.2855 6.80753 10.4079 6.5028 10.4079C6.19807 10.4079 5.90509 10.2855 5.68485 10.0663C5.46461 9.84706 5.33409 9.54785 5.32048 9.23096ZM12.1886 13.3133C11.3946 13.9121 10.4391 14.2344 9.45862 14.2344C8.47812 14.2344 7.52268 13.9121 6.72863 13.3133C6.6638 13.2668 6.60857 13.2072 6.56616 13.1381C6.52376 13.0691 6.49504 12.9919 6.48169 12.9111C6.46834 12.8303 6.47063 12.7475 6.48843 12.6677C6.50623 12.5878 6.53917 12.5125 6.58533 12.4461C6.63149 12.3797 6.68993 12.3235 6.75722 12.2809C6.82452 12.2383 6.8993 12.2102 6.97719 12.1981C7.05508 12.186 7.13451 12.1903 7.2108 12.2106C7.28709 12.2309 7.35872 12.2669 7.42147 12.3164C8.01371 12.7639 8.72678 13.0049 9.45862 13.0049C10.1905 13.0049 10.9035 12.7639 11.4958 12.3164C11.5585 12.2669 11.6301 12.2309 11.7064 12.2106C11.7827 12.1903 11.8622 12.186 11.94 12.1981C12.0179 12.2102 12.0927 12.2383 12.16 12.2809C12.2273 12.3235 12.2857 12.3797 12.3319 12.4461C12.3781 12.5125 12.411 12.5878 12.4288 12.6677C12.4466 12.7475 12.4489 12.8303 12.4355 12.9111C12.4222 12.9919 12.3935 13.0691 12.3511 13.1381C12.3087 13.2072 12.2534 13.2668 12.1886 13.3133ZM12.4144 10.4617C12.1009 10.4617 11.8001 10.332 11.5784 10.1012C11.3567 9.87042 11.2321 9.55737 11.2321 9.23096C11.2321 8.90455 11.3567 8.59151 11.5784 8.3607C11.8001 8.1299 12.1009 8.00023 12.4144 8.00023C12.728 8.00023 13.0287 8.1299 13.2505 8.3607C13.4722 8.59151 13.5968 8.90455 13.5968 9.23096C13.5968 9.55737 13.4722 9.87042 13.2505 10.1012C13.0287 10.332 12.728 10.4617 12.4144 10.4617Z" fill="#D1D5DB"/>
</svg>
