<svg width="203" height="44" viewBox="0 0 203 44" fill="none" xmlns="http://www.w3.org/2000/svg">
<path d="M29.057 2L6 6.06552L11.8338 39.1468L18.0202 38.0561V34.9551L14.3097 35.6092L9.53751 8.54256L26.5788 5.53751L27.6236 11.4617H30.7258L29.057 2Z" fill="white"/>
<path d="M38.3787 14.8351V40.2552C38.3787 41.2175 37.5961 42 36.6339 42H21.3932C20.431 42 19.6484 41.2175 19.6484 40.2552V14.8351C19.6484 13.8728 20.431 13.0903 21.3932 13.0903H36.6339C37.5961 13.0903 38.3787 13.874 38.3787 14.8351Z" fill="white"/>
<path d="M59.7983 32.0944C58.4071 32.0944 57.1528 31.8487 56.0367 31.3573C54.9194 30.8658 54.0025 30.1617 53.2849 29.2448C52.5673 28.328 52.1138 27.2351 51.9219 25.9649L55.6248 25.4172C55.8852 26.4955 56.4243 27.3255 57.2421 27.9074C58.0587 28.4893 58.989 28.7815 60.033 28.7815C60.6149 28.7815 61.1809 28.6898 61.7286 28.5076C62.2762 28.3255 62.7261 28.0553 63.0782 27.6996C63.4303 27.3439 63.6063 26.9038 63.6063 26.383C63.6063 26.1923 63.5782 26.0065 63.522 25.8292C63.4658 25.6508 63.3716 25.4832 63.242 25.3268C63.1112 25.1703 62.9266 25.0224 62.6882 24.883C62.4486 24.7436 62.1466 24.6177 61.7823 24.5053L56.9059 23.0713C56.5404 22.9674 56.1174 22.8195 55.6346 22.6276C55.1517 22.4369 54.6847 22.163 54.2323 21.806C53.78 21.4503 53.4047 20.9784 53.104 20.3917C52.8033 19.8049 52.6541 19.064 52.6541 18.168C52.6541 16.9076 52.9707 15.8599 53.6064 15.025C54.2409 14.19 55.0881 13.569 56.1492 13.1607C57.2091 12.7524 58.3827 12.5519 59.6699 12.5604C60.9645 12.5776 62.121 12.8 63.1381 13.2255C64.1552 13.6521 65.0072 14.2707 65.6943 15.0837C66.3813 15.8966 66.8764 16.8892 67.1808 18.0628L63.3472 18.7144C63.2078 18.1056 62.9511 17.5934 62.5782 17.1753C62.2041 16.7584 61.7591 16.4406 61.242 16.223C60.7249 16.0054 60.1834 15.888 59.6186 15.8709C59.0624 15.8538 58.5379 15.9296 58.0477 16.0995C57.5563 16.2694 57.1565 16.5152 56.8484 16.8367C56.5404 17.1582 56.3851 17.5408 56.3851 17.9846C56.3851 18.3929 56.5111 18.7254 56.7629 18.9821C57.0147 19.2388 57.3326 19.4455 57.7152 19.6019C58.0979 19.7584 58.489 19.8892 58.8888 19.9931L62.1491 20.8794C62.6356 21.0102 63.1748 21.1813 63.7665 21.394C64.3569 21.6068 64.9254 21.9026 65.4682 22.2803C66.011 22.6581 66.4596 23.1569 66.8116 23.773C67.1637 24.3903 67.3398 25.1727 67.3398 26.1202C67.3398 27.1287 67.1283 28.0089 66.7077 28.7607C66.286 29.5126 65.7187 30.1348 65.006 30.625C64.2933 31.1165 63.4865 31.4832 62.5868 31.7264C61.6821 31.9722 60.7542 32.0944 59.7983 32.0944Z" fill="white"/>
<path d="M68.6113 31.7033V17.6204H71.7409V22.289H72.1846V31.7033H68.6113ZM77.1125 31.7033V23.3844C77.1125 22.4541 76.8924 21.7303 76.4535 21.2132C76.0146 20.6961 75.4083 20.4369 74.6345 20.4369C73.8961 20.4369 73.302 20.6912 72.8545 21.1998C72.4071 21.7083 72.1834 22.3673 72.1834 23.1753L70.6969 22.1325C70.6969 21.2108 70.9267 20.3856 71.3876 19.6546C71.8484 18.9247 72.467 18.3465 73.2458 17.9199C74.0233 17.4944 74.8949 17.2805 75.8607 17.2805C76.9646 17.2805 77.8704 17.5153 78.5794 17.9847C79.2872 18.4541 79.8117 19.08 80.1503 19.8624C80.489 20.6448 80.6589 21.5054 80.6589 22.4443V31.7021H77.1125V31.7033ZM85.5891 31.7033V23.3844C85.5891 22.4541 85.3691 21.7303 84.9302 21.2132C84.4914 20.6961 83.885 20.4369 83.1112 20.4369C82.6161 20.4369 82.1858 20.5519 81.8202 20.7829C81.4547 21.014 81.1699 21.3355 80.9657 21.7475C80.7616 22.1607 80.6589 22.6362 80.6589 23.1753L79.1723 22.1839C79.1723 21.2193 79.401 20.3673 79.8569 19.6277C80.3129 18.8893 80.9266 18.3135 81.6956 17.9003C82.4645 17.4871 83.319 17.2805 84.2579 17.2805C85.8654 17.2805 87.0806 17.7561 87.9021 18.7084C88.7236 19.6607 89.1343 20.9052 89.1343 22.4443V31.7021H85.5891V31.7033Z" fill="white"/>
<path d="M94.8741 32.0945C93.8655 32.0945 93.011 31.9013 92.3117 31.5138C91.6113 31.1275 91.0819 30.6104 90.7213 29.9625C90.3606 29.3146 90.1797 28.5994 90.1797 27.817C90.1797 27.1654 90.28 26.5701 90.4792 26.031C90.6785 25.4919 91.0025 25.0163 91.4511 24.6031C91.8985 24.1899 92.5012 23.8452 93.2567 23.5664C93.7787 23.3757 94.3997 23.2058 95.121 23.0579C95.8423 22.91 96.6601 22.7694 97.572 22.6337C98.4852 22.4992 99.4889 22.3488 100.584 22.1838L99.3067 22.888C99.3067 22.053 99.1062 21.4406 98.7065 21.0494C98.3067 20.6582 97.6368 20.4626 96.698 20.4626C96.176 20.4626 95.6332 20.5885 95.0684 20.8403C94.5036 21.0922 94.1075 21.5396 93.8814 22.1838L90.6736 21.1667C91.0293 20.0017 91.6993 19.0543 92.6821 18.3245C93.6638 17.5946 95.0036 17.2291 96.698 17.2291C97.9412 17.2291 99.0451 17.421 100.01 17.8025C100.974 18.1851 101.705 18.8452 102.2 19.7841C102.478 20.3061 102.644 20.8269 102.695 21.3489C102.748 21.8709 102.774 22.4527 102.774 23.0958V31.7021H99.6698V28.8072L100.114 29.4075C99.4265 30.3549 98.6857 31.0395 97.8899 31.4612C97.0941 31.883 96.0904 32.0945 94.8741 32.0945ZM95.6295 29.3047C96.2811 29.3047 96.8312 29.1899 97.2787 28.9588C97.7261 28.729 98.0831 28.4662 98.3483 28.1703C98.6136 27.8745 98.7933 27.6275 98.8898 27.427C99.072 27.0444 99.1784 26.5994 99.209 26.0908C99.2395 25.5823 99.2541 25.1581 99.2541 24.8195L100.297 25.0799C99.2456 25.2535 98.3935 25.399 97.7407 25.5163C97.0891 25.6337 96.5623 25.74 96.1626 25.8354C95.7628 25.9307 95.4107 26.0359 95.1063 26.1483C94.7579 26.2877 94.478 26.4381 94.2653 26.5982C94.0526 26.7596 93.896 26.9356 93.7958 27.1263C93.6955 27.317 93.6454 27.5309 93.6454 27.7657C93.6454 28.0872 93.7261 28.3635 93.8863 28.5933C94.0464 28.8231 94.275 29.0003 94.5709 29.1214C94.8692 29.2436 95.2212 29.3047 95.6295 29.3047Z" fill="white"/>
<path d="M104.078 31.7033V17.6204H107.208V21.0629L106.869 20.6191C107.051 20.1326 107.294 19.6888 107.599 19.2891C107.903 18.8893 108.277 18.5592 108.72 18.2976C109.059 18.0886 109.428 17.926 109.829 17.8086C110.228 17.6913 110.642 17.618 111.067 17.5874C111.492 17.5568 111.919 17.5679 112.345 17.6204V20.9321C111.953 20.8111 111.499 20.7695 110.981 20.8086C110.464 20.8477 109.997 20.9675 109.579 21.1668C109.162 21.3587 108.81 21.613 108.523 21.9297C108.236 22.2475 108.019 22.6203 107.871 23.0507C107.724 23.481 107.65 23.9663 107.65 24.5041V31.7021H104.078V31.7033Z" fill="white"/>
<path d="M113.258 20.3587V17.6203H123.272V20.3587H113.258ZM123.272 31.7033C122.299 31.8854 121.345 31.9661 120.411 31.9441C119.477 31.9221 118.642 31.757 117.907 31.449C117.172 31.1409 116.614 30.6434 116.231 29.9563C115.883 29.3133 115.7 28.6593 115.683 27.9943C115.666 27.3292 115.658 26.5749 115.658 25.7314V13.7096H119.204V25.5236C119.204 26.0713 119.21 26.5652 119.224 27.0041C119.237 27.4429 119.325 27.7925 119.491 28.0541C119.804 28.5492 120.304 28.8195 120.991 28.8622C121.678 28.9063 122.439 28.8708 123.274 28.7583V31.7033H123.272Z" fill="white"/>
<path d="M126.4 31.7033V12.926H133.65C133.832 12.926 134.038 12.9322 134.27 12.9456C134.499 12.9591 134.733 12.9872 134.968 13.0299C135.949 13.1779 136.782 13.519 137.465 14.0532C138.147 14.5874 138.664 15.2598 139.016 16.0678C139.368 16.8759 139.544 17.772 139.544 18.7536C139.544 19.7267 139.366 20.6179 139.01 21.4271C138.653 22.2352 138.134 22.9076 137.452 23.4418C136.769 23.976 135.941 24.3183 134.968 24.465C134.733 24.5005 134.501 24.5262 134.27 24.5433C134.04 24.5604 133.833 24.5689 133.65 24.5689H128.316V31.7009H126.4V31.7033ZM128.317 22.745H133.598C133.755 22.745 133.937 22.7365 134.146 22.7193C134.355 22.7022 134.559 22.6717 134.758 22.6277C135.402 22.4883 135.93 22.223 136.343 21.8318C136.756 21.4406 137.064 20.976 137.268 20.4369C137.472 19.8978 137.575 19.3367 137.575 18.7548C137.575 18.1729 137.472 17.6094 137.268 17.0666C137.064 16.5238 136.755 16.0556 136.343 15.6644C135.93 15.2732 135.402 15.0079 134.758 14.8686C134.558 14.8246 134.354 14.7964 134.146 14.7842C133.937 14.7708 133.755 14.7646 133.598 14.7646H128.317V22.745Z" fill="white"/>
<path d="M140.574 31.7033V12.926H142.309V23.5274H142.505V31.7033H140.574ZM150.759 31.7033V24.5188C150.759 23.7364 150.685 23.0176 150.537 22.3611C150.39 21.7047 150.152 21.1313 149.827 20.6399C149.501 20.1484 149.079 19.7682 148.562 19.4993C148.045 19.2304 147.416 19.0946 146.678 19.0946C146 19.0946 145.402 19.2121 144.885 19.4468C144.368 19.6815 143.932 20.0189 143.58 20.4578C143.228 20.8966 142.96 21.4296 142.778 22.0555C142.596 22.6814 142.505 23.3942 142.505 24.1937L141.149 23.8941C141.149 22.4516 141.401 21.2389 141.906 20.256C142.409 19.2731 143.105 18.5311 143.992 18.0262C144.879 17.5226 145.896 17.2695 147.044 17.2695C147.887 17.2695 148.623 17.4003 149.254 17.6607C149.885 17.9211 150.419 18.2732 150.858 18.7169C151.297 19.1607 151.651 19.6668 151.92 20.2365C152.189 20.8062 152.385 21.4101 152.507 22.0494C152.629 22.6888 152.689 23.3257 152.689 23.9602V31.7058H150.759V31.7033Z" fill="white"/>
<path d="M160.394 32.0945C158.994 32.0945 157.799 31.7767 156.809 31.1422C155.817 30.5077 155.057 29.63 154.526 28.5077C153.996 27.3867 153.73 26.0995 153.73 24.6484C153.73 23.1704 153.999 21.8758 154.539 20.7621C155.078 19.6497 155.844 18.7817 156.84 18.1607C157.836 17.5397 159.02 17.2279 160.394 17.2279C161.802 17.2279 163.004 17.5434 163.999 18.1729C164.994 18.8037 165.755 19.6766 166.282 20.7939C166.807 21.9113 167.07 23.1949 167.07 24.6472C167.07 26.1252 166.805 27.4222 166.274 28.5395C165.744 29.6569 164.978 30.5285 163.98 31.1544C162.98 31.7816 161.785 32.0945 160.394 32.0945ZM160.394 30.2559C161.959 30.2559 163.124 29.7363 163.889 28.6972C164.654 27.6581 165.037 26.3085 165.037 24.6484C165.037 22.9442 164.652 21.5885 163.883 20.58C163.114 19.5714 161.952 19.0678 160.395 19.0678C159.344 19.0678 158.476 19.3049 157.794 19.778C157.112 20.2524 156.603 20.9088 156.268 21.7474C155.933 22.5861 155.766 23.553 155.766 24.6484C155.766 26.344 156.157 27.7021 156.939 28.7229C157.721 29.7461 158.872 30.2559 160.394 30.2559Z" fill="white"/>
<path d="M167.332 19.2645V17.6215H176.564V19.2645H167.332ZM176.564 31.7032C175.773 31.8683 174.993 31.9331 174.223 31.8988C173.454 31.8646 172.767 31.6996 172.163 31.4038C171.559 31.1079 171.101 30.647 170.788 30.0211C170.536 29.4991 170.399 28.971 170.377 28.4368C170.355 27.9026 170.344 27.2913 170.344 26.6043V13.7084H172.248V26.526C172.248 27.1177 172.254 27.6104 172.267 28.0065C172.281 28.4026 172.369 28.7522 172.535 29.0566C172.848 29.6385 173.345 29.9869 174.028 30.0993C174.71 30.2118 175.556 30.1862 176.564 30.0211V31.7032Z" fill="white"/>
<path d="M183.656 32.0945C182.256 32.0945 181.061 31.7766 180.07 31.1422C179.079 30.5077 178.319 29.6299 177.788 28.5077C177.257 27.3867 176.992 26.0994 176.992 24.6484C176.992 23.1704 177.261 21.8758 177.8 20.7621C178.339 19.6496 179.106 18.7817 180.102 18.1607C181.097 17.5397 182.282 17.2279 183.656 17.2279C185.064 17.2279 186.266 17.5433 187.261 18.1729C188.256 18.8037 189.016 19.6766 189.543 20.7939C190.069 21.9113 190.332 23.1949 190.332 24.6472C190.332 26.1251 190.067 27.4222 189.536 28.5395C189.005 29.6569 188.24 30.5285 187.241 31.1544C186.243 31.7816 185.047 32.0945 183.656 32.0945ZM183.656 30.2559C185.221 30.2559 186.386 29.7363 187.151 28.6972C187.916 27.6581 188.299 26.3085 188.299 24.6484C188.299 22.9442 187.914 21.5885 187.145 20.58C186.376 19.5714 185.213 19.0678 183.657 19.0678C182.606 19.0678 181.738 19.3049 181.056 19.778C180.374 20.2523 179.865 20.9088 179.53 21.7474C179.195 22.586 179.028 23.553 179.028 24.6484C179.028 26.3439 179.419 27.7021 180.201 28.7229C180.984 29.7461 182.135 30.2559 183.656 30.2559Z" fill="white"/>
<path d="M196.761 32.081C195.11 32.081 193.751 31.724 192.687 31.0113C191.622 30.2986 190.968 29.3072 190.725 28.0383L192.681 27.7119C192.89 28.5114 193.365 29.1483 194.108 29.6226C194.852 30.0969 195.771 30.3329 196.866 30.3329C197.936 30.3329 198.778 30.1092 199.396 29.6618C200.013 29.2144 200.321 28.6031 200.321 27.8293C200.321 27.3941 200.223 27.0408 200.028 26.7669C199.832 26.4931 199.435 26.2388 198.835 26.0041C198.234 25.7694 197.339 25.4919 196.149 25.1692C194.871 24.822 193.871 24.4735 193.15 24.1264C192.429 23.7792 191.915 23.377 191.611 22.9198C191.307 22.4638 191.155 21.9051 191.155 21.2437C191.155 20.4442 191.381 19.7425 191.833 19.1374C192.286 18.5335 192.912 18.0641 193.711 17.7291C194.511 17.3942 195.441 17.2267 196.502 17.2267C197.562 17.2267 198.512 17.3991 199.352 17.7414C200.19 18.0849 200.866 18.5653 201.38 19.1827C201.892 19.8 202.196 20.5176 202.293 21.3342L200.337 21.6863C200.206 20.8611 199.795 20.2059 199.105 19.7242C198.414 19.2414 197.537 18.9919 196.478 18.9748C195.478 18.9491 194.665 19.1374 194.039 19.5421C193.413 19.9467 193.1 20.4834 193.1 21.1521C193.1 21.5261 193.212 21.8452 193.439 22.1105C193.665 22.3758 194.075 22.6252 194.671 22.8599C195.266 23.0946 196.116 23.3513 197.22 23.6288C198.514 23.9589 199.531 24.3073 200.271 24.6716C201.009 25.0371 201.536 25.4674 201.849 25.9625C202.162 26.4576 202.319 27.0713 202.319 27.8011C202.319 29.1312 201.825 30.1764 200.838 30.9368C199.849 31.7021 198.491 32.081 196.761 32.081Z" fill="white"/>
</svg>
