<svg width="203" height="44" viewBox="0 0 203 44" fill="none" xmlns="http://www.w3.org/2000/svg">
<path d="M29.057 2L6 6.06552L11.8338 39.1468L18.0202 38.0561V34.9551L14.3097 35.6092L9.53751 8.54256L26.5788 5.53751L27.6236 11.4617H30.7258L29.057 2Z" fill="#1D4ED8"/>
<path d="M38.3791 14.8351V40.2552C38.3791 41.2175 37.5966 42 36.6343 42H21.3937C20.4314 42 19.6489 41.2175 19.6489 40.2552V14.8351C19.6489 13.8728 20.4314 13.0903 21.3937 13.0903H36.6343C37.5966 13.0903 38.3791 13.874 38.3791 14.8351Z" fill="#1D4ED8"/>
<path d="M59.798 32.0944C58.4068 32.0944 57.1525 31.8487 56.0364 31.3573C54.919 30.8658 54.0022 30.1617 53.2846 29.2448C52.567 28.328 52.1135 27.2351 51.9216 25.9649L55.6245 25.4172C55.8849 26.4955 56.424 27.3255 57.2418 27.9074C58.0584 28.4893 58.9887 28.7815 60.0327 28.7815C60.6146 28.7815 61.1806 28.6898 61.7283 28.5076C62.2759 28.3255 62.7258 28.0553 63.0779 27.6996C63.43 27.3439 63.606 26.9038 63.606 26.383C63.606 26.1923 63.5779 26.0065 63.5217 25.8292C63.4655 25.6508 63.3713 25.4832 63.2417 25.3268C63.1109 25.1703 62.9263 25.0224 62.6879 24.883C62.4483 24.7436 62.1463 24.6177 61.782 24.5053L56.9056 23.0713C56.5401 22.9674 56.1171 22.8195 55.6343 22.6276C55.1514 22.4369 54.6844 22.163 54.232 21.806C53.7797 21.4503 53.4044 20.9784 53.1037 20.3917C52.803 19.8049 52.6538 19.064 52.6538 18.168C52.6538 16.9076 52.9704 15.8599 53.6061 15.025C54.2406 14.19 55.0878 13.569 56.1489 13.1607C57.2088 12.7524 58.3824 12.5519 59.6696 12.5604C60.9642 12.5776 62.1207 12.8 63.1378 13.2255C64.1549 13.6521 65.0069 14.2707 65.694 15.0837C66.381 15.8966 66.8761 16.8892 67.1805 18.0628L63.3469 18.7144C63.2075 18.1056 62.9508 17.5934 62.5779 17.1753C62.2038 16.7584 61.7588 16.4406 61.2417 16.223C60.7246 16.0054 60.1831 15.888 59.6183 15.8709C59.0621 15.8538 58.5376 15.9296 58.0474 16.0995C57.556 16.2694 57.1562 16.5152 56.8481 16.8367C56.5401 17.1582 56.3848 17.5408 56.3848 17.9846C56.3848 18.3929 56.5108 18.7254 56.7626 18.9821C57.0144 19.2388 57.3323 19.4455 57.7149 19.6019C58.0976 19.7584 58.4887 19.8892 58.8884 19.9931L62.1488 20.8794C62.6353 21.0102 63.1745 21.1813 63.7662 21.394C64.3566 21.6068 64.9251 21.9026 65.4679 22.2803C66.0106 22.6581 66.4593 23.1569 66.8113 23.773C67.1634 24.3903 67.3395 25.1727 67.3395 26.1202C67.3395 27.1287 67.1279 28.0089 66.7074 28.7607C66.2857 29.5126 65.7184 30.1348 65.0057 30.625C64.293 31.1165 63.4862 31.4832 62.5864 31.7264C61.6818 31.9722 60.7539 32.0944 59.798 32.0944Z" fill="#1D4ED8"/>
<path d="M68.6119 31.7033V17.6204H71.7414V22.289H72.1852V31.7033H68.6119ZM77.113 31.7033V23.3844C77.113 22.4541 76.8929 21.7303 76.4541 21.2132C76.0152 20.6961 75.4089 20.4369 74.635 20.4369C73.8967 20.4369 73.3025 20.6912 72.8551 21.1998C72.4077 21.7083 72.184 22.3673 72.184 23.1753L70.6974 22.1325C70.6974 21.2108 70.9272 20.3856 71.3881 19.6546C71.849 18.9247 72.4676 18.3465 73.2463 17.9199C74.0238 17.4944 74.8955 17.2805 75.8612 17.2805C76.9651 17.2805 77.8709 17.5153 78.58 17.9847C79.2878 18.4541 79.8122 19.08 80.1509 19.8624C80.4895 20.6448 80.6594 21.5054 80.6594 22.4443V31.7021H77.113V31.7033ZM85.5897 31.7033V23.3844C85.5897 22.4541 85.3696 21.7303 84.9308 21.2132C84.4919 20.6961 83.8856 20.4369 83.1117 20.4369C82.6166 20.4369 82.1863 20.5519 81.8208 20.7829C81.4553 21.014 81.1704 21.3355 80.9663 21.7475C80.7621 22.1607 80.6594 22.6362 80.6594 23.1753L79.1729 22.1839C79.1729 21.2193 79.4015 20.3673 79.8575 19.6277C80.3135 18.8893 80.9272 18.3135 81.6961 17.9003C82.465 17.4871 83.3196 17.2805 84.2584 17.2805C85.866 17.2805 87.0811 17.7561 87.9026 18.7084C88.7241 19.6607 89.1348 20.9052 89.1348 22.4443V31.7021H85.5897V31.7033Z" fill="#1D4ED8"/>
<path d="M94.8732 32.0945C93.8647 32.0945 93.0101 31.9013 92.3109 31.5138C91.6104 31.1275 91.081 30.6104 90.7204 29.9625C90.3598 29.3146 90.1788 28.5994 90.1788 27.817C90.1788 27.1654 90.2791 26.5701 90.4784 26.031C90.6776 25.4919 91.0016 25.0163 91.4503 24.6031C91.8977 24.1899 92.5004 23.8452 93.2559 23.5664C93.7779 23.3757 94.3989 23.2058 95.1201 23.0579C95.8414 22.91 96.6592 22.7694 97.5712 22.6337C98.4844 22.4992 99.4881 22.3488 100.583 22.1838L99.3059 22.888C99.3059 22.053 99.1054 21.4406 98.7056 21.0494C98.3059 20.6582 97.636 20.4626 96.6971 20.4626C96.1751 20.4626 95.6323 20.5885 95.0676 20.8403C94.5028 21.0922 94.1067 21.5396 93.8805 22.1838L90.6727 21.1667C91.0285 20.0017 91.6984 19.0543 92.6813 18.3245C93.6629 17.5946 95.0028 17.2291 96.6971 17.2291C97.9404 17.2291 99.0443 17.421 100.009 17.8025C100.973 18.1851 101.704 18.8452 102.199 19.7841C102.477 20.3061 102.643 20.8269 102.695 21.3489C102.747 21.8709 102.773 22.4527 102.773 23.0958V31.7021H99.669V28.8072L100.113 29.4075C99.4257 30.3549 98.6849 31.0395 97.889 31.4612C97.0932 31.883 96.0896 32.0945 94.8732 32.0945ZM95.6287 29.3047C96.2802 29.3047 96.8304 29.1899 97.2778 28.9588C97.7252 28.729 98.0822 28.4662 98.3475 28.1703C98.6128 27.8745 98.7924 27.6275 98.889 27.427C99.0711 27.0444 99.1775 26.5994 99.2081 26.0908C99.2387 25.5823 99.2533 25.1581 99.2533 24.8195L100.296 25.0799C99.2448 25.2535 98.3927 25.399 97.7399 25.5163C97.0883 25.6337 96.5614 25.74 96.1617 25.8354C95.7619 25.9307 95.4099 26.0359 95.1055 26.1483C94.7571 26.2877 94.4771 26.4381 94.2644 26.5982C94.0517 26.7596 93.8952 26.9356 93.7949 27.1263C93.6947 27.317 93.6446 27.5309 93.6446 27.7657C93.6446 28.0872 93.7253 28.3635 93.8854 28.5933C94.0456 28.8231 94.2742 29.0003 94.57 29.1214C94.8683 29.2436 95.2203 29.3047 95.6287 29.3047Z" fill="#1D4ED8"/>
<path d="M104.078 31.7033V17.6204H107.208V21.0629L106.869 20.6191C107.052 20.1326 107.295 19.6888 107.599 19.2891C107.904 18.8893 108.278 18.5592 108.72 18.2976C109.059 18.0886 109.428 17.926 109.829 17.8086C110.229 17.6913 110.642 17.618 111.067 17.5874C111.493 17.5568 111.919 17.5679 112.345 17.6204V20.9321C111.954 20.8111 111.499 20.7695 110.982 20.8086C110.465 20.8477 109.998 20.9675 109.58 21.1668C109.163 21.3587 108.811 21.613 108.523 21.9297C108.236 22.2475 108.02 22.6203 107.872 23.0507C107.724 23.481 107.651 23.9663 107.651 24.5041V31.7021H104.078V31.7033Z" fill="#1D4ED8"/>
<path d="M113.258 20.3587V17.6203H123.273V20.3587H113.258ZM123.273 31.7033C122.299 31.8854 121.345 31.9661 120.411 31.9441C119.477 31.9221 118.642 31.757 117.907 31.449C117.172 31.1409 116.614 30.6434 116.231 29.9563C115.883 29.3133 115.701 28.6593 115.683 27.9943C115.666 27.3292 115.658 26.5749 115.658 25.7314V13.7096H119.204V25.5236C119.204 26.0713 119.21 26.5652 119.224 27.0041C119.237 27.4429 119.325 27.7925 119.491 28.0541C119.804 28.5492 120.304 28.8195 120.991 28.8622C121.678 28.9063 122.439 28.8708 123.274 28.7583V31.7033H123.273Z" fill="#1D4ED8"/>
<path d="M126.401 31.7033V12.926H133.65C133.832 12.926 134.039 12.9322 134.27 12.9456C134.5 12.9591 134.733 12.9872 134.968 13.0299C135.95 13.1779 136.782 13.519 137.466 14.0532C138.148 14.5874 138.665 15.2598 139.017 16.0678C139.369 16.8759 139.545 17.772 139.545 18.7536C139.545 19.7267 139.367 20.6179 139.011 21.4271C138.654 22.2352 138.134 22.9076 137.452 23.4418C136.77 23.976 135.941 24.3183 134.968 24.465C134.733 24.5005 134.501 24.5262 134.27 24.5433C134.04 24.5604 133.834 24.5689 133.65 24.5689H128.317V31.7009H126.401V31.7033ZM128.318 22.745H133.599C133.755 22.745 133.938 22.7365 134.147 22.7193C134.356 22.7022 134.56 22.6717 134.759 22.6277C135.402 22.4883 135.93 22.223 136.343 21.8318C136.757 21.4406 137.065 20.976 137.269 20.4369C137.473 19.8978 137.576 19.3367 137.576 18.7548C137.576 18.1729 137.473 17.6094 137.269 17.0666C137.065 16.5238 136.755 16.0556 136.343 15.6644C135.93 15.2732 135.402 15.0079 134.759 14.8686C134.559 14.8246 134.354 14.7964 134.147 14.7842C133.938 14.7708 133.755 14.7646 133.599 14.7646H128.318V22.745Z" fill="#1D4ED8"/>
<path d="M140.574 31.7033V12.926H142.309V23.5274H142.505V31.7033H140.574ZM150.759 31.7033V24.5188C150.759 23.7364 150.685 23.0176 150.538 22.3611C150.39 21.7047 150.152 21.1313 149.827 20.6399C149.501 20.1484 149.079 19.7682 148.562 19.4993C148.045 19.2304 147.417 19.0946 146.678 19.0946C146 19.0946 145.402 19.2121 144.885 19.4468C144.368 19.6815 143.932 20.0189 143.58 20.4578C143.228 20.8966 142.961 21.4296 142.778 22.0555C142.596 22.6814 142.505 23.3942 142.505 24.1937L141.149 23.8941C141.149 22.4516 141.401 21.2389 141.906 20.256C142.409 19.2731 143.105 18.5311 143.992 18.0262C144.879 17.5226 145.896 17.2695 147.044 17.2695C147.887 17.2695 148.623 17.4003 149.254 17.6607C149.885 17.9211 150.419 18.2732 150.858 18.7169C151.297 19.1607 151.651 19.6668 151.92 20.2365C152.189 20.8062 152.385 21.4101 152.507 22.0494C152.629 22.6888 152.689 23.3257 152.689 23.9602V31.7058H150.759V31.7033Z" fill="#1D4ED8"/>
<path d="M160.394 32.0945C158.995 32.0945 157.799 31.7767 156.809 31.1422C155.817 30.5077 155.057 29.63 154.527 28.5077C153.996 27.3867 153.731 26.0995 153.731 24.6484C153.731 23.1704 154 21.8758 154.539 20.7621C155.078 19.6497 155.844 18.7817 156.841 18.1607C157.836 17.5397 159.02 17.2279 160.394 17.2279C161.803 17.2279 163.004 17.5434 164 18.1729C164.995 18.8037 165.755 19.6766 166.282 20.7939C166.808 21.9113 167.07 23.1949 167.07 24.6472C167.07 26.1252 166.805 27.4222 166.275 28.5395C165.744 29.6569 164.979 30.5285 163.98 31.1544C162.98 31.7816 161.786 32.0945 160.394 32.0945ZM160.394 30.2559C161.959 30.2559 163.124 29.7363 163.889 28.6972C164.655 27.6581 165.037 26.3085 165.037 24.6484C165.037 22.9442 164.652 21.5885 163.883 20.58C163.114 19.5714 161.952 19.0678 160.396 19.0678C159.344 19.0678 158.476 19.3049 157.794 19.778C157.112 20.2524 156.604 20.9088 156.269 21.7474C155.934 22.5861 155.766 23.553 155.766 24.6484C155.766 26.344 156.157 27.7021 156.94 28.7229C157.721 29.7461 158.872 30.2559 160.394 30.2559Z" fill="#1D4ED8"/>
<path d="M167.331 19.2645V17.6215H176.563V19.2645H167.331ZM176.563 31.7032C175.772 31.8683 174.992 31.9331 174.222 31.8988C173.453 31.8646 172.766 31.6996 172.162 31.4038C171.558 31.1079 171.1 30.647 170.787 30.0211C170.535 29.4991 170.398 28.971 170.376 28.4368C170.354 27.9026 170.343 27.2913 170.343 26.6043V13.7084H172.246V26.526C172.246 27.1177 172.252 27.6104 172.266 28.0065C172.279 28.4026 172.367 28.7522 172.534 29.0566C172.847 29.6385 173.344 29.9869 174.026 30.0993C174.708 30.2118 175.554 30.1862 176.563 30.0211V31.7032Z" fill="#1D4ED8"/>
<path d="M183.656 32.0945C182.256 32.0945 181.06 31.7767 180.07 31.1422C179.079 30.5077 178.318 29.63 177.788 28.5077C177.257 27.3867 176.992 26.0995 176.992 24.6484C176.992 23.1704 177.261 21.8758 177.8 20.7621C178.339 19.6497 179.106 18.7817 180.102 18.1607C181.097 17.5397 182.282 17.2279 183.656 17.2279C185.064 17.2279 186.266 17.5434 187.261 18.1729C188.256 18.8037 189.016 19.6766 189.543 20.7939C190.069 21.9113 190.332 23.1949 190.332 24.6472C190.332 26.1252 190.066 27.4222 189.536 28.5395C189.005 29.6569 188.24 30.5285 187.241 31.1544C186.242 31.7816 185.047 32.0945 183.656 32.0945ZM183.656 30.2559C185.22 30.2559 186.385 29.7363 187.151 28.6972C187.916 27.6581 188.299 26.3085 188.299 24.6484C188.299 22.9442 187.914 21.5885 187.145 20.58C186.376 19.5714 185.213 19.0678 183.657 19.0678C182.606 19.0678 181.738 19.3049 181.055 19.778C180.373 20.2524 179.865 20.9088 179.53 21.7474C179.195 22.5861 179.027 23.553 179.027 24.6484C179.027 26.344 179.419 27.7021 180.201 28.7229C180.983 29.7461 182.135 30.2559 183.656 30.2559Z" fill="#1D4ED8"/>
<path d="M196.761 32.081C195.109 32.081 193.751 31.724 192.686 31.0113C191.621 30.2986 190.967 29.3072 190.724 28.0383L192.68 27.7119C192.889 28.5114 193.365 29.1483 194.108 29.6226C194.851 30.0969 195.77 30.3329 196.866 30.3329C197.935 30.3329 198.778 30.1092 199.395 29.6618C200.012 29.2143 200.321 28.6031 200.321 27.8292C200.321 27.394 200.223 27.0407 200.027 26.7669C199.832 26.4931 199.434 26.2388 198.834 26.0041C198.234 25.7693 197.339 25.4919 196.148 25.1692C194.871 24.822 193.871 24.4735 193.149 24.1263C192.428 23.7792 191.915 23.377 191.61 22.9197C191.306 22.4638 191.154 21.9051 191.154 21.2437C191.154 20.4442 191.381 19.7425 191.833 19.1374C192.285 18.5335 192.911 18.0641 193.711 17.7291C194.51 17.3941 195.44 17.2267 196.501 17.2267C197.561 17.2267 198.511 17.399 199.351 17.7413C200.19 18.0849 200.866 18.5653 201.379 19.1827C201.891 19.8 202.196 20.5176 202.292 21.3342L200.336 21.6863C200.206 20.8611 199.795 20.2059 199.104 19.7242C198.413 19.2414 197.537 18.9919 196.477 18.9748C195.477 18.9491 194.664 19.1374 194.038 19.5421C193.412 19.9467 193.099 20.4834 193.099 21.152C193.099 21.5261 193.212 21.8452 193.438 22.1105C193.664 22.3758 194.075 22.6252 194.67 22.8599C195.266 23.0946 196.115 23.3513 197.219 23.6288C198.514 23.9589 199.531 24.3073 200.27 24.6716C201.009 25.0371 201.536 25.4674 201.849 25.9625C202.162 26.4576 202.318 27.0713 202.318 27.8011C202.318 29.1312 201.824 30.1764 200.838 30.9368C199.849 31.702 198.49 32.081 196.761 32.081Z" fill="#1D4ED8"/>
</svg>
