<svg width="18" height="14" viewBox="0 0 18 14" fill="none" xmlns="http://www.w3.org/2000/svg">
<path d="M18 1.70469C17.326 1.98916 16.611 2.17589 15.879 2.25866C16.6415 1.82326 17.227 1.13377 17.5027 0.312262C16.7778 0.72207 15.9847 1.01081 15.1577 1.16599C14.484 0.482271 13.5243 0.0549698 12.4621 0.0549698C10.4226 0.0549698 8.76909 1.6302 8.76909 3.57305C8.76909 3.84883 8.80179 4.11731 8.86472 4.37487C5.79558 4.22811 3.07448 2.8275 1.25304 0.698969C0.935226 1.21858 0.753117 1.82299 0.753117 2.46766C0.753117 3.68827 1.40512 4.76506 2.39597 5.396C1.80953 5.3785 1.23599 5.2276 0.723234 4.9559C0.723023 4.97064 0.723023 4.98538 0.723023 5.00018C0.723023 6.70476 1.99596 8.12674 3.68529 8.44994C3.14148 8.59084 2.57107 8.61146 2.01762 8.51023C2.48752 9.90795 3.85137 10.9251 5.46729 10.9535C4.20342 11.8971 2.61105 12.4596 0.880945 12.4596C0.58282 12.4596 0.288914 12.4429 0 12.4104C1.63427 13.4086 3.57539 13.9911 5.66086 13.9911C12.4535 13.9911 16.1679 8.63013 16.1679 3.98106C16.1679 3.82847 16.1644 3.67675 16.1573 3.5259C16.8802 3.02798 17.5042 2.41127 18 1.70469Z" fill="#D1D5DB"/>
</svg>
