<svg width="20" height="14" viewBox="0 0 20 14" fill="none" xmlns="http://www.w3.org/2000/svg">
<path d="M19.5822 2.18614C19.3522 1.32559 18.6746 0.64797 17.814 0.417969C16.2542 -1.11759e-07 10 0 10 0C10 0 3.74583 -1.11759e-07 2.18598 0.417969C1.32559 0.64797 0.647814 1.32559 0.417852 2.18614C0 3.74583 0 7.00013 0 7.00013C0 7.00013 0 10.2544 0.417852 11.8139C0.647814 12.6744 1.32559 13.3523 2.18598 13.5822C3.74583 14 10 14 10 14C10 14 16.2542 14 17.814 13.5822C18.6746 13.3523 19.3522 12.6744 19.5822 11.8139C20 10.2544 20 7.00013 20 7.00013C20 7.00013 20 3.74583 19.5822 2.18614ZM7.9999 10.0002V4.00005L13.196 7.00013L7.9999 10.0002Z" fill="#D1D5DB"/>
</svg>
