<svg width="107" height="31" viewBox="0 0 107 31" fill="none" xmlns="http://www.w3.org/2000/svg">
<g clip-path="url(#clip0_207_266)">
<path d="M22.2145 0H8.84387C3.95954 0 0 3.95209 0 8.82725V22.1728C0 27.0479 3.95954 31 8.84387 31H22.2145C27.0988 31 31.0584 27.0479 31.0584 22.1728V8.82725C31.0584 3.95209 27.0988 0 22.2145 0Z" fill="white"/>
<path d="M45.9043 12.245C45.6248 12.5356 45.2599 12.9464 44.8095 13.4734C44.3592 14.0004 43.8739 14.5855 43.3614 15.2287C42.849 15.872 42.3287 16.5462 41.8085 17.2437C41.2883 17.9451 40.8185 18.6116 40.4031 19.251H46.0286V21.3512H37.3633V19.7935C37.67 19.2394 38.0504 18.6349 38.5086 17.9839C38.9667 17.3329 39.4403 16.678 39.9256 16.0192C40.4109 15.3605 40.8962 14.7327 41.3737 14.136C41.8512 13.5392 42.2783 13.02 42.6549 12.5782H37.635V10.478H45.9043V12.245Z" fill="white"/>
<path d="M50.3383 7.29663C50.3383 7.76938 50.1869 8.14138 49.8802 8.42038C49.5735 8.69938 49.2124 8.835 48.797 8.835C48.3816 8.835 47.9973 8.6955 47.6944 8.42038C47.3877 8.14525 47.2363 7.76938 47.2363 7.29663C47.2363 6.82388 47.3877 6.4325 47.6944 6.1535C48.0011 5.8745 48.3661 5.73888 48.797 5.73888C49.2279 5.73888 49.5735 5.87838 49.8802 6.1535C50.1869 6.4325 50.3383 6.81225 50.3383 7.29663ZM50.0665 21.3513H47.5469V10.478H50.0665V21.3513Z" fill="white"/>
<path d="M51.6113 10.8306C52.0966 10.6911 52.7294 10.5594 53.5059 10.4354C54.2823 10.3114 55.1442 10.2494 56.0876 10.2494C56.9766 10.2494 57.7182 10.3695 58.316 10.6136C58.9139 10.8577 59.3875 11.1949 59.7447 11.6327C60.1019 12.0706 60.3504 12.5976 60.494 13.2137C60.6415 13.8299 60.7114 14.508 60.7114 15.2404V21.3512H58.1918V15.6317C58.1918 15.0505 58.153 14.5545 58.0792 14.1437C58.0016 13.7369 57.8773 13.4036 57.7026 13.144C57.5279 12.8882 57.2911 12.7022 56.9961 12.5821C56.6971 12.4659 56.3322 12.4039 55.9012 12.4039C55.5829 12.4039 55.249 12.4232 54.8996 12.4659C54.5541 12.5085 54.294 12.5434 54.127 12.5705V21.3435H51.6074V10.8306H51.6113Z" fill="white"/>
<path d="M71.5423 20.2507C71.5423 21.9829 71.0997 23.25 70.2184 24.056C69.3371 24.8581 67.9861 25.2611 66.1653 25.2611C65.4975 25.2611 64.8492 25.2069 64.2164 25.0945C63.5835 24.9821 63.0128 24.8387 62.4965 24.6566L62.9546 22.5137C63.3855 22.692 63.8747 22.8392 64.4221 22.9516C64.9695 23.064 65.5635 23.1182 66.2041 23.1182C67.2174 23.1182 67.9395 22.909 68.3704 22.4944C68.8014 22.0797 69.0149 21.4597 69.0149 20.6421V20.2275C68.7664 20.3515 68.4364 20.4755 68.0249 20.6034C67.6134 20.7274 67.1475 20.7894 66.6195 20.7894C65.9246 20.7894 65.2879 20.677 64.7133 20.4561C64.1387 20.2352 63.6457 19.9097 63.2341 19.4796C62.8226 19.0495 62.5043 18.5109 62.2752 17.8676C62.0462 17.2244 61.9297 16.4765 61.9297 15.6317C61.9297 14.8412 62.05 14.1127 62.2946 13.4501C62.5353 12.7836 62.8925 12.2179 63.3584 11.7451C63.8242 11.2724 64.3911 10.9081 65.0549 10.6446C65.7227 10.3811 66.4797 10.2494 67.3261 10.2494C68.1724 10.2494 68.9217 10.3114 69.6593 10.4354C70.397 10.5594 71.022 10.6911 71.5345 10.8306V20.2507H71.5423ZM64.5231 15.6356C64.5231 16.7012 64.756 17.484 65.2219 17.9761C65.6877 18.4682 66.2895 18.7124 67.0233 18.7124C67.427 18.7124 67.8036 18.6581 68.1569 18.5457C68.5102 18.4334 68.7975 18.3016 69.0226 18.1505V12.5162C68.8441 12.4736 68.6189 12.4349 68.3549 12.4039C68.0909 12.369 67.757 12.3535 67.3533 12.3535C66.437 12.3535 65.7343 12.6557 65.2491 13.2564C64.7638 13.857 64.5192 14.6514 64.5192 15.6356H64.5231Z" fill="white"/>
<path d="M72.8984 15.9263C72.8984 15.1242 73.0226 14.3686 73.275 13.6711C73.5234 12.9697 73.8806 12.3652 74.3465 11.8537C74.8124 11.3422 75.3792 10.9392 76.043 10.6486C76.7108 10.3579 77.4601 10.2107 78.2909 10.2107C79.3197 10.2107 80.2903 10.3967 81.2065 10.7726L80.663 12.8302C80.3718 12.7062 80.0418 12.6016 79.673 12.5202C79.3042 12.4388 78.9121 12.3962 78.4967 12.3962C77.5106 12.3962 76.7613 12.7062 76.2488 13.3223C75.7363 13.9384 75.4762 14.8103 75.4762 15.9302C75.4762 17.0501 75.7208 17.8677 76.2061 18.4993C76.6914 19.1309 77.5106 19.4448 78.6636 19.4448C79.0945 19.4448 79.5177 19.4022 79.9331 19.3208C80.3485 19.2394 80.7096 19.1348 81.0163 19.0108L81.3696 21.0917C81.09 21.2312 80.6707 21.3552 80.1078 21.4676C79.5449 21.5799 78.9664 21.6342 78.3685 21.6342C77.4368 21.6342 76.6293 21.4908 75.9421 21.2079C75.2549 20.9251 74.6842 20.5298 74.2339 20.0222C73.7836 19.5146 73.4458 18.9139 73.2245 18.2126C73.0032 17.5112 72.8906 16.7556 72.8906 15.9341L72.8984 15.9263Z" fill="white"/>
<path d="M86.1252 10.2106C86.9599 10.2106 87.6587 10.3152 88.2294 10.5206C88.8001 10.726 89.2544 11.0205 89.5921 11.3925C89.9338 11.7683 90.1745 12.2217 90.322 12.7526C90.4695 13.2873 90.5394 13.8725 90.5394 14.508V21.0993C90.1512 21.1807 89.5649 21.2815 88.7807 21.4016C87.9965 21.5178 87.1113 21.5798 86.1252 21.5798C85.473 21.5798 84.8751 21.5178 84.3355 21.3938C83.792 21.2698 83.3339 21.0683 82.9495 20.7893C82.569 20.5103 82.2701 20.15 82.0527 19.7082C81.8392 19.2665 81.7305 18.7162 81.7305 18.0652C81.7305 17.4142 81.8508 16.9143 82.0954 16.4842C82.34 16.0541 82.67 15.7053 83.0854 15.4341C83.5008 15.1628 83.9861 14.9691 84.5335 14.8528C85.0809 14.7366 85.6555 14.6746 86.2533 14.6746C86.5329 14.6746 86.824 14.694 87.1269 14.725C87.4336 14.7598 87.7597 14.818 88.1052 14.9032V14.4886C88.1052 14.198 88.0703 13.919 88.0004 13.6555C87.9305 13.392 87.8101 13.1595 87.6354 12.958C87.4607 12.7565 87.2317 12.6015 86.9483 12.4891C86.6649 12.3767 86.3038 12.3225 85.8768 12.3225C85.2944 12.3225 84.7587 12.3651 84.2734 12.4465C83.7881 12.5278 83.3921 12.6286 83.0854 12.7371L82.7748 10.6988C83.0932 10.5865 83.559 10.478 84.1686 10.3656C84.7781 10.2532 85.4303 10.199 86.1252 10.199V10.2106ZM86.3349 19.5881C87.1113 19.5881 87.7014 19.5455 88.1052 19.4641V16.678C87.9654 16.6353 87.7636 16.5966 87.4996 16.554C87.2356 16.5113 86.9444 16.492 86.626 16.492C86.3465 16.492 86.067 16.5113 85.7836 16.554C85.5002 16.5966 85.2439 16.6702 85.011 16.7826C84.782 16.895 84.5995 17.05 84.4597 17.2515C84.32 17.453 84.2501 17.7048 84.2501 18.011C84.2501 18.6077 84.4364 19.0185 84.813 19.2471C85.1896 19.4757 85.6943 19.592 86.3349 19.592V19.5881Z" fill="white"/>
<path d="M98.1688 15.6356C98.1688 14.5002 98.0251 13.6787 97.7417 13.1711C97.4583 12.6635 96.9264 12.4116 96.15 12.4116C95.8704 12.4116 95.5676 12.431 95.2337 12.4736C94.8999 12.5162 94.6514 12.5511 94.4845 12.5782V21.3512H91.9648V10.8306C92.4501 10.6911 93.0868 10.5594 93.871 10.4354C94.6553 10.3114 95.4861 10.2494 96.3596 10.2494C97.1089 10.2494 97.7223 10.3462 98.2037 10.54C98.6812 10.7337 99.0811 10.9895 99.3994 11.3111C99.5509 11.1987 99.745 11.0825 99.9818 10.9585C100.219 10.8345 100.483 10.7182 100.774 10.6136C101.065 10.509 101.376 10.4237 101.702 10.354C102.028 10.2842 102.358 10.2494 102.692 10.2494C103.538 10.2494 104.237 10.3695 104.784 10.6136C105.332 10.8577 105.763 11.1949 106.077 11.6327C106.391 12.0706 106.605 12.5976 106.721 13.2137C106.838 13.8299 106.9 14.508 106.9 15.2404V21.3512H104.38V15.6317C104.38 14.4964 104.241 13.6749 103.965 13.1672C103.686 12.6596 103.154 12.4077 102.362 12.4077C101.958 12.4077 101.577 12.4736 101.216 12.6054C100.855 12.7371 100.584 12.865 100.405 12.989C100.518 13.3339 100.591 13.702 100.634 14.0895C100.677 14.477 100.696 14.8955 100.696 15.3373V21.3474H98.1765V15.6279L98.1688 15.6356Z" fill="white"/>
<path d="M88.3762 23.8738C88.5587 23.8738 88.7179 23.9048 88.8499 23.9668C88.9819 24.0288 89.0944 24.1141 89.1799 24.2187C89.2653 24.3233 89.3351 24.4512 89.3778 24.5985C89.4206 24.7457 89.4438 24.9007 89.4438 25.0673C89.4438 25.3425 89.3973 25.606 89.3002 25.854C89.2031 26.1058 89.0673 26.3267 88.8887 26.5166C88.7101 26.7065 88.4966 26.8615 88.2403 26.9738C87.9841 27.0862 87.6968 27.1443 87.3785 27.1443C87.3319 27.1443 87.2659 27.1443 87.1882 27.1366C87.1067 27.1327 87.0213 27.1211 86.9242 27.1056C86.8272 27.0901 86.7301 27.0668 86.6331 27.0397C86.5321 27.0126 86.4428 26.9777 86.3574 26.9312L87.4056 22.5486L88.1627 22.4285L87.7783 24.0288C87.8676 23.9862 87.9608 23.9475 88.0579 23.9165C88.1588 23.8855 88.2636 23.87 88.3762 23.87V23.8738ZM87.4755 26.536C87.658 26.536 87.8288 26.4972 87.9802 26.4197C88.1316 26.3422 88.2636 26.2376 88.3762 26.1058C88.4888 25.9741 88.5703 25.823 88.6324 25.6563C88.6946 25.4897 88.7217 25.3115 88.7217 25.1293C88.7217 25.0363 88.714 24.955 88.6984 24.8736C88.6829 24.7961 88.6557 24.7302 88.6169 24.6721C88.5781 24.614 88.5237 24.5675 88.4539 24.5365C88.3879 24.5016 88.3024 24.4861 88.1976 24.4861C88.1083 24.4861 88.0152 24.5016 87.9103 24.5326C87.8055 24.5636 87.7123 24.614 87.623 24.6837L87.1844 26.5127C87.2193 26.5205 87.262 26.5282 87.3086 26.5321C87.3552 26.536 87.4095 26.5398 87.4794 26.5398L87.4755 26.536Z" fill="white"/>
<path d="M92.7439 23.9436C92.6624 24.1722 92.577 24.4047 92.4799 24.6527C92.3829 24.8968 92.2781 25.1448 92.1577 25.389C92.0412 25.637 91.9131 25.8811 91.7772 26.1252C91.6414 26.3693 91.4938 26.6096 91.3385 26.8382C91.2221 27.0126 91.1017 27.1831 90.9775 27.342C90.8533 27.5047 90.7174 27.6442 90.5737 27.7682C90.4262 27.8922 90.267 27.993 90.0923 28.0666C89.9176 28.1402 89.7157 28.179 89.4945 28.179C89.3702 28.179 89.2615 28.1635 89.1606 28.1363C89.0596 28.1092 88.9781 28.0782 88.9121 28.0395L89.145 27.4621C89.1994 27.4931 89.2654 27.5202 89.3353 27.5396C89.4052 27.559 89.4828 27.5706 89.5643 27.5706C89.7507 27.5706 89.9176 27.5202 90.0574 27.4233C90.1971 27.3265 90.3291 27.1947 90.4417 27.0281C90.3136 26.5863 90.2049 26.1058 90.1195 25.5905C90.0302 25.0751 89.972 24.5248 89.9448 23.9436H90.6747C90.6786 24.1102 90.6863 24.2962 90.7018 24.4977C90.7174 24.6992 90.7329 24.9085 90.7562 25.1216C90.7795 25.3347 90.8067 25.544 90.8377 25.7532C90.8688 25.9586 90.9076 26.1523 90.9464 26.3267C91.0668 26.1368 91.1794 25.9353 91.2842 25.7222C91.389 25.513 91.4861 25.2998 91.5715 25.0906C91.6608 24.8813 91.7345 24.6798 91.8005 24.4822C91.8665 24.2846 91.9248 24.1063 91.9714 23.9436H92.7362H92.7439Z" fill="white"/>
<path d="M94.0918 27.0668L95.0857 22.9283H97.6402L97.4888 23.5561H95.6797L95.4195 24.6295H97.0229L96.8754 25.2495H95.2875L94.8488 27.063H94.0957L94.0918 27.0668Z" fill="white"/>
<path d="M98.486 27.125C98.2996 27.1211 98.1405 27.0978 98.0085 27.0513C97.8765 27.0048 97.7755 26.9467 97.6979 26.8731C97.6202 26.7995 97.5659 26.7065 97.5309 26.6057C97.496 26.5011 97.4805 26.3887 97.4805 26.2647C97.4805 26.1407 97.496 26.0012 97.5271 25.8617C97.5581 25.7222 97.5892 25.5788 97.6241 25.4393L98.319 22.5486L99.0722 22.4285C98.948 22.9516 98.8237 23.467 98.6995 23.9823C98.5753 24.4977 98.4472 25.017 98.319 25.5362C98.2996 25.6215 98.2802 25.7028 98.2569 25.7842C98.2336 25.8656 98.222 25.947 98.222 26.0245C98.222 26.0903 98.222 26.1562 98.222 26.2143C98.222 26.2725 98.2414 26.3228 98.2686 26.3655C98.2996 26.4081 98.3423 26.443 98.4045 26.4701C98.4627 26.4972 98.5403 26.5166 98.6374 26.5243L98.4821 27.1211L98.486 27.125Z" fill="white"/>
<path d="M101.728 25.854C101.716 25.8966 101.705 25.9702 101.693 26.0671C101.682 26.1678 101.674 26.2608 101.674 26.3461C101.674 26.4623 101.685 26.5747 101.705 26.6832C101.724 26.7917 101.755 26.9041 101.802 27.0165L101.157 27.1133C101.111 27.0165 101.072 26.9157 101.045 26.8072C100.944 26.8963 100.824 26.9738 100.676 27.0436C100.528 27.1133 100.365 27.1482 100.183 27.1482C100 27.1482 99.8336 27.1172 99.7016 27.0552C99.5696 26.9932 99.4609 26.908 99.3754 26.7995C99.29 26.691 99.2279 26.5631 99.1891 26.4158C99.1503 26.2686 99.1309 26.1097 99.1309 25.9392C99.1309 25.6486 99.1813 25.3773 99.2862 25.1255C99.391 24.8736 99.5346 24.6566 99.721 24.4745C99.9073 24.2923 100.125 24.149 100.381 24.0405C100.637 23.9358 100.917 23.8816 101.22 23.8816C101.375 23.8816 101.53 23.8932 101.689 23.9203C101.848 23.9475 102.004 23.994 102.167 24.0676L101.736 25.854H101.728ZM101.336 24.5055C101.258 24.49 101.173 24.4822 101.08 24.4822C100.901 24.4822 100.734 24.521 100.583 24.5985C100.431 24.676 100.299 24.7806 100.191 24.9085C100.082 25.0363 99.9966 25.1875 99.9345 25.3541C99.8724 25.5207 99.8452 25.6951 99.8452 25.8811C99.8452 25.9741 99.853 26.0593 99.8685 26.1368C99.884 26.2182 99.9112 26.288 99.95 26.3461C99.9889 26.4042 100.039 26.4546 100.101 26.4895C100.164 26.5243 100.249 26.5437 100.346 26.5437C100.474 26.5437 100.587 26.5166 100.684 26.4623C100.781 26.4081 100.874 26.3345 100.956 26.2453C100.959 26.1407 100.967 26.0438 100.983 25.9547C100.998 25.8656 101.014 25.7726 101.041 25.6796L101.336 24.5093V24.5055Z" fill="white"/>
<path d="M103.052 24.0753C103.211 24.0288 103.39 23.9823 103.592 23.9397C103.79 23.8971 104.011 23.8777 104.252 23.8777C104.43 23.8777 104.582 23.9048 104.702 23.9552C104.823 24.0056 104.927 24.0792 105.009 24.1761C105.125 24.1102 105.265 24.0404 105.432 23.9746C105.599 23.9087 105.785 23.8777 105.999 23.8777C106.181 23.8777 106.337 23.9048 106.465 23.9552C106.593 24.0056 106.698 24.0792 106.775 24.1683C106.857 24.2613 106.911 24.3698 106.95 24.4938C106.985 24.6178 107.004 24.7573 107.004 24.9046C107.004 25.0673 106.981 25.2417 106.938 25.4238L106.542 27.0668H105.82L106.189 25.5013C106.209 25.4238 106.228 25.3424 106.247 25.2533C106.267 25.1642 106.275 25.0751 106.275 24.9821C106.275 24.9201 106.267 24.8542 106.255 24.7922C106.24 24.7302 106.216 24.6798 106.181 24.6333C106.146 24.5907 106.096 24.5519 106.034 24.5248C105.972 24.4977 105.894 24.4822 105.797 24.4822C105.692 24.4822 105.591 24.5016 105.49 24.5403C105.389 24.5791 105.308 24.6217 105.238 24.6643C105.253 24.7418 105.261 24.8232 105.261 24.9084C105.261 24.9898 105.253 25.0712 105.242 25.1603C105.23 25.2494 105.215 25.3347 105.195 25.4161L104.799 27.0591H104.077L104.45 25.4936C104.469 25.4199 104.489 25.3386 104.508 25.2456C104.527 25.1526 104.535 25.0596 104.535 24.9666C104.535 24.8348 104.504 24.7224 104.442 24.6217C104.38 24.5248 104.263 24.4744 104.093 24.4744C104.011 24.4744 103.937 24.4783 103.864 24.4899C103.794 24.5016 103.728 24.5132 103.666 24.5287L103.064 27.0552H102.334L103.052 24.0637V24.0753Z" fill="white"/>
<path d="M5.39197 23.6413L5.43856 23.5948L10.3885 18.9022C10.8621 19.6268 11.4872 20.2468 12.217 20.7118L9.34803 23.4282H12.1278V25.9935H6.40137C5.84231 25.9935 5.3415 25.6641 5.12021 25.1526C4.89892 24.6372 5.00374 24.0443 5.39197 23.6413Z" fill="#111827"/>
<path d="M7.57399 12.0435H5.00391V9.23022C5.00391 6.89359 6.90623 4.99097 9.24726 4.99097H12.093V7.55622H9.24726C8.32715 7.55622 7.57399 8.30797 7.57399 9.22634V12.0396V12.0435Z" fill="#111827"/>
<path d="M21.826 26.009H18.9492V23.4437H21.826C22.7461 23.4437 23.4993 22.692 23.4993 21.7736V18.8867H26.0694V21.7736C26.0694 24.1102 24.167 26.0128 21.826 26.0128V26.009Z" fill="#111827"/>
<path d="M15.5212 19.933C13.0521 19.933 11.0449 17.9296 11.0449 15.4651C11.0449 13.0006 13.0521 10.9972 15.5212 10.9972C17.9904 10.9972 19.9975 13.0006 19.9975 15.4651C19.9975 17.9296 17.9904 19.933 15.5212 19.933ZM15.5212 13.5625C14.4691 13.5625 13.615 14.415 13.615 15.4651C13.615 16.5152 14.4691 17.3677 15.5212 17.3677C16.5733 17.3677 17.4274 16.5152 17.4274 15.4651C17.4274 14.415 16.5733 13.5625 15.5212 13.5625Z" fill="#111827"/>
<path d="M25.6845 7.347L25.6379 7.3935L20.6879 12.0861C20.2143 11.3615 19.5892 10.7415 18.8594 10.2765L21.7284 7.56012H18.9487V4.99487H24.6751C25.2341 4.99487 25.7349 5.32425 25.9562 5.83575C26.1775 6.35112 26.0727 6.944 25.6845 7.347Z" fill="#111827"/>
</g>
<defs>
<clipPath id="clip0_207_266">
<rect width="107" height="31" fill="white"/>
</clipPath>
</defs>
</svg>
